/* XPM */
static char *door_00[] = {
"64 64 3 1",
". c #8B4513",
"# c #654321",
"@ c #000000",
"################################################################",
"#..............................................................#",
"#..............................................................#",
"#..............................................................#",
"#..............................................................#",
"#..............................................................#",
"#..............................................................#",
"#..............................................................#",
"#..............................................................#",
"#..............................................................#",
"#..............................................................#",
"#..............................................................#",
"#..............................................................#",
"#..............................................................#",
"#..............................................................#",
"#..............................................................#",
"#..............................................................#",
"#..............................................................#",
"#..............................................................#",
"#..............................................................#",
"#..............................................................#",
"#..............................................................#",
"#..............................................................#",
"#..............................................................#",
"#..............................................................#",
"#..............................................................#",
"#..............................................................#",
"#..............................................................#",
"#..............................................................#",
"#..............................................................#",
"#.............................@@@@.............................#",
"#.............................@@@@.............................#",
"#.............................@@@@.............................#",
"#.............................@@@@.............................#",
"#..............................................................#",
"#..............................................................#",
"#..............................................................#",
"#..............................................................#",
"#..............................................................#",
"#..............................................................#",
"#..............................................................#",
"#..............................................................#",
"#..............................................................#",
"#..............................................................#",
"#..............................................................#",
"#..............................................................#",
"#..............................................................#",
"#..............................................................#",
"#..............................................................#",
"#..............................................................#",
"#..............................................................#",
"#..............................................................#",
"#..............................................................#",
"#..............................................................#",
"#..............................................................#",
"#..............................................................#",
"#..............................................................#",
"#..............................................................#",
"#..............................................................#",
"#..............................................................#",
"#..............................................................#",
"#..............................................................#",
"#..............................................................#",
"################################################################"
};
